<?xml version="1.0" encoding="UTF-8" standalone="no"?>
<!-- Generator: Adobe Illustrator 23.0.1, SVG Export Plug-In . SVG Version: 6.00 Build 0)  -->

<svg
   version="1.1"
   id="Layer_1"
   x="0px"
   y="0px"
   viewBox="0 0 1064.0699 53.659988"
   xml:space="preserve"
   sodipodi:docname="EKM-logo-dark-navbar.svg"
   width="1064.0699"
   height="53.659988"
   inkscape:version="1.2.1 (9c6d41e410, 2022-07-14)"
   xmlns:inkscape="http://www.inkscape.org/namespaces/inkscape"
   xmlns:sodipodi="http://sodipodi.sourceforge.net/DTD/sodipodi-0.dtd"
   xmlns="http://www.w3.org/2000/svg"
   xmlns:svg="http://www.w3.org/2000/svg"><defs
   id="defs121">
	
	

		
		
		
	
		
	
			
			
			
			
			
			
			
			
			
			
			
			
			
			
			
			
			
			
			
			
			
		
			
			
			
			
			
		
			
			
			
			
			
		
			
			
			
			
			
		</defs><sodipodi:namedview
   id="namedview119"
   pagecolor="#ffffff"
   bordercolor="#666666"
   borderopacity="1.0"
   inkscape:pageshadow="2"
   inkscape:pageopacity="0.0"
   inkscape:pagecheckerboard="0"
   inkscape:showpageshadow="2"
   inkscape:deskcolor="#d1d1d1"
   showgrid="false"
   inkscape:zoom="1.1371433"
   inkscape:cx="513.56764"
   inkscape:cy="45.728626"
   inkscape:window-width="1920"
   inkscape:window-height="1057"
   inkscape:window-x="-8"
   inkscape:window-y="-8"
   inkscape:window-maximized="1"
   inkscape:current-layer="Layer_1" />
<g
   id="g4"
   transform="translate(-107.97,-485.17001)"
   style="fill:#ffff00">
				<rect
   x="509.38"
   y="485.17001"
   width="4.3000002"
   height="47.27"
   id="rect2"
   style="fill:#ffff00" />
			</g><g
   id="g8"
   transform="translate(-107.97,-485.17001)"
   style="fill:#ffff00">
				<rect
   x="494.16"
   y="485.17001"
   width="4.3000002"
   height="47.27"
   id="rect6"
   style="fill:#ffff00" />
			</g><g
   id="g12"
   transform="translate(-107.97,-485.17001)"
   style="fill:#ffff00">
				<rect
   x="448.95999"
   y="485.17001"
   width="4.3000002"
   height="47.27"
   id="rect10"
   style="fill:#ffff00" />
			</g><g
   id="g16"
   transform="translate(-107.97,-485.17001)"
   style="fill:#ffff00">
				<rect
   x="429.23001"
   y="485.17001"
   width="4.3000002"
   height="47.27"
   id="rect14"
   style="fill:#ffff00" />
			</g><g
   id="g20"
   transform="translate(-107.97,-485.17001)"
   style="fill:#ffff00">
				<rect
   x="383.17001"
   y="485.17001"
   width="4.3000002"
   height="47.27"
   id="rect18"
   style="fill:#ffff00" />
			</g><g
   id="g26"
   transform="translate(-107.97,-485.17001)"
   style="fill:#ffff00">
				<rect
   x="323.81"
   y="485.17001"
   width="4.3000002"
   height="47.27"
   id="rect24"
   style="fill:#ffff00" />
			</g><g
   id="g30"
   transform="translate(-107.97,-485.17001)"
   style="fill:#ffff00">
				<rect
   x="347.37"
   y="485.17001"
   width="4.3000002"
   height="47.27"
   id="rect28"
   style="fill:#ffff00" />
			</g><g
   id="g34"
   transform="translate(-107.97,-485.17001)"
   style="fill:#ffff00">
				<rect
   x="263.39001"
   y="485.17001"
   width="4.3000002"
   height="47.27"
   id="rect32"
   style="fill:#ffff00" />
			</g><g
   id="g38"
   transform="translate(-107.97,-485.17001)"
   style="fill:#ffff00">
				<rect
   x="225.35001"
   y="485.17001"
   width="4.3000002"
   height="47.27"
   id="rect36"
   style="fill:#ffff00" />
			</g><g
   id="g42"
   transform="translate(-107.97,-485.17001)"
   style="fill:#ffff00">
				<rect
   x="107.97"
   y="485.17001"
   width="4.3000002"
   height="47.27"
   id="rect40"
   style="fill:#ffff00" />
			</g><g
   id="g48"
   transform="translate(-107.97,-485.17001)"
   style="fill:#ffff00">
				<rect
   x="532.79999"
   y="485.17001"
   width="4.3000002"
   height="47.27"
   id="rect46"
   style="fill:#ffff00" />
			</g><g
   id="g52"
   transform="translate(-107.97,-485.17001)"
   style="fill:#ffff00">
				<rect
   x="541.65002"
   y="485.17001"
   width="4.3000002"
   height="47.27"
   id="rect50"
   style="fill:#ffff00" />
			</g><g
   id="g56"
   transform="translate(-107.97,-485.17001)"
   style="fill:#ffff00">
				<rect
   x="550.5"
   y="485.17001"
   width="4.3000002"
   height="47.27"
   id="rect54"
   style="fill:#ffff00" />
			</g><g
   id="g60"
   transform="translate(-107.97,-485.17001)"
   style="fill:#ffff00">
				<rect
   x="559.34998"
   y="485.17001"
   width="4.3000002"
   height="47.27"
   id="rect58"
   style="fill:#ffff00" />
			</g><g
   id="g64"
   transform="translate(-107.97,-485.17001)"
   style="fill:#ffff00">
				<rect
   x="568.20001"
   y="485.17001"
   width="4.3000002"
   height="47.27"
   id="rect62"
   style="fill:#ffff00" />
			</g><path
   d="m 504.22,4.62999 h 19.66 v 4.5 h -14.86 v 12.06 h 14.86 v 4.5 h -14.86 v 12.46 h 14.86 v 4.5 h -19.66 z"
   id="path70"
   style="fill:#ffff00" /><path
   d="m 553.92,37.59999 c -3.5,3.9 -7.2,5.65 -11.76,5.65 -9.26,0 -14.21,-6.7 -14.21,-13.66 0,-7.4 5.3,-13.61 13.46,-13.61 8.06,0 13.66,6.15 13.66,15.36 h -22.31 c 0.7,4.45 4.3,7.71 9.36,7.71 3.2,0 6.05,-1.5 8.35,-4.2 z m -3.95,-9.96 c -0.45,-4.3 -3.95,-7.45 -8.61,-7.45 -5.5,0 -8.15,3.9 -8.61,7.45 z"
   id="path72"
   style="fill:#ffff00" /><path
   d="m 563.32,35.03999 c 0.3,2.8 2.65,4.25 5.4,4.25 4.05,0 5.15,-2.2 5.15,-3.75 0,-1.7 -1.1,-2.75 -4.6,-3.7 l -4.55,-1.25 c -3.85,-1.05 -5.3,-3.6 -5.3,-6.7 0,-4.3 3.25,-7.9 9.31,-7.9 6.65,0 8.96,4.2 8.96,8.1 h -4.2 c -0.35,-2.95 -1.85,-4.4 -4.85,-4.4 -2.85,0 -4.7,1.7 -4.7,3.75 0,1.45 0.8,2.55 2.9,3.15 l 6.1,1.75 c 4.1,1.2 5.45,3.45 5.45,6.81 0,5.3 -4.65,8.1 -9.46,8.1 -6.1,0 -9.66,-3.25 -9.81,-8.21 z"
   id="path74"
   style="fill:#ffff00" /><path
   d="m 584.97,10.27999 h 4.5 v 6.3 h 4.15 v 3.95 h -4.15 v 16.01 c 0,1.4 0.45,1.9 2.2,1.9 h 2.05 v 4.15 c -0.65,0.05 -1.7,0.05 -2.75,0.05 -4.6,0 -6,-1.6 -6,-5.6 v -16.51 h -3.6 v -3.95 h 3.6 z"
   id="path76"
   style="fill:#ffff00" /><path
   d="m 601.1,5.17999 c 1.75,0 3.15,1.4 3.15,3.15 0,1.75 -1.4,3.15 -3.15,3.15 -1.75,0 -3.15,-1.4 -3.15,-3.15 0,-1.75 1.4,-3.15 3.15,-3.15 z m -2.25,11.4 h 4.5 v 26.06 h -4.5 z"
   id="path78"
   style="fill:#ffff00" /><path
   d="m 643.22,4.62999 h 6.15 l -17.06,18.56 17.46,19.46 h -6.9 l -15.16,-17.36 v 17.36 h -4.8 v -38.02 h 4.8 v 17.41 z"
   id="path80"
   style="fill:#ffff00" /><path
   d="m 656.19,5.17999 c 1.75,0 3.15,1.4 3.15,3.15 0,1.75 -1.4,3.15 -3.15,3.15 -1.75,0 -3.15,-1.4 -3.15,-3.15 0,-1.75 1.4,-3.15 3.15,-3.15 z m -2.25,11.4 h 4.5 v 26.06 h -4.5 z"
   id="path82"
   style="fill:#ffff00" /><path
   d="m 665.84,16.57999 h 4.5 v 3.7 h 0.1 c 2.25,-4.05 4.4,-4.3 8.21,-4.3 v 4.75 c -0.65,-0.15 -1.35,-0.25 -2.05,-0.25 -3.75,0 -6.25,2.6 -6.25,7.35 v 14.81 h -4.5 v -26.06 z"
   id="path84"
   style="fill:#ffff00" /><path
   d="m 683.12,16.57999 h 4.5 v 27.97 c 0,5.9 -3.05,8.7 -7.75,9.11 v -4.2 c 2.15,0 3.25,-1.7 3.25,-4.45 z m 2.25,-11.4 c 1.75,0 3.15,1.4 3.15,3.15 0,1.75 -1.4,3.15 -3.15,3.15 -1.75,0 -3.15,-1.4 -3.15,-3.15 0,-1.75 1.4,-3.15 3.15,-3.15 z"
   id="path86"
   style="fill:#ffff00" /><path
   d="m 712.29,25.18999 c 0,-4.3 -4.3,-5.25 -7.8,-5.25 -2.45,0 -4.75,0.6 -7.2,1.8 l -1.95,-3.75 c 3.95,-1.65 7.05,-2 9.41,-2 6.25,0 12.06,2.65 12.06,8.86 v 17.81 h -4.2 v -2.8 c -2.3,2.4 -4.85,3.4 -8.31,3.4 -6.35,0 -11.36,-3.55 -11.36,-9.36 0,-4.75 4.05,-8.96 11.31,-8.96 2.75,0 5.65,0.8 8.05,2.95 v -2.7 z m -7.21,3.7 c -5.5,0 -7.35,2.65 -7.35,5.2 0,2.55 1.85,5.2 7.35,5.2 5.5,0 7.35,-2.65 7.35,-5.2 0.01,-2.55 -1.84,-5.2 -7.35,-5.2 z"
   id="path88"
   style="fill:#ffff00" /><path
   d="m 741.09,27.48999 c 0,-3.9 -1.6,-7.3 -6.05,-7.3 -4.2,0 -6.75,2.85 -6.75,7.81 v 14.66 h -4.5 v -26.06 h 4.5 v 3.05 h 0.1 c 1.35,-2.35 4.25,-3.65 7.15,-3.65 5.05,0 10.06,2.75 10.06,9.81 v 16.86 h -4.5 v -15.18 z"
   id="path90"
   style="fill:#ffff00" /><path
   d="m 774.85,4.62999 h 4.5 v 38.02 h -4.5 v -4 h -0.1 c -1.9,2.7 -5.2,4.6 -9.71,4.6 -7.25,0 -13.76,-5.7 -13.76,-13.91 0,-7.5 6.2,-13.36 13.56,-13.36 3.85,0 7.76,1.6 9.91,4.7 h 0.1 z m -9.21,15.55 c -6.1,0 -9.56,4.85 -9.56,9.21 0,6 4.65,9.66 9.41,9.66 5.15,0 9.36,-4.2 9.36,-9.41 0,-5.25 -4.3,-9.46 -9.21,-9.46 z"
   id="path92"
   style="fill:#ffff00" /><path
   d="m 803.9,39.59999 h -0.1 c -1.35,2.35 -4.25,3.65 -7.15,3.65 -5.05,0 -10.06,-2.75 -10.06,-9.81 v -16.86 h 4.5 v 15.16 c 0,3.9 1.6,7.3 6.05,7.3 4.2,0 6.75,-2.85 6.75,-7.8 v -14.66 h 4.5 v 26.06 h -4.5 v -3.04 z"
   id="path94"
   style="fill:#ffff00" /><path
   d="m 818.42,35.03999 c 0.3,2.8 2.65,4.25 5.4,4.25 4.05,0 5.15,-2.2 5.15,-3.75 0,-1.7 -1.1,-2.75 -4.6,-3.7 l -4.55,-1.25 c -3.85,-1.05 -5.3,-3.6 -5.3,-6.7 0,-4.3 3.25,-7.9 9.31,-7.9 6.65,0 8.96,4.2 8.96,8.1 h -4.2 c -0.35,-2.95 -1.85,-4.4 -4.85,-4.4 -2.85,0 -4.7,1.7 -4.7,3.75 0,1.45 0.8,2.55 2.9,3.15 l 6.1,1.75 c 4.1,1.2 5.45,3.45 5.45,6.81 0,5.3 -4.65,8.1 -9.46,8.1 -6.1,0 -9.66,-3.25 -9.81,-8.21 z"
   id="path96"
   style="fill:#ffff00" /><path
   d="m 872.84,26.68999 c 0,-4.5 -2.6,-6.5 -5.7,-6.5 -3.75,0 -6.55,2.35 -6.55,6.7 v 15.76 h -4.5 v -15.96 c 0,-4.5 -2.6,-6.5 -5.7,-6.5 -3.75,0 -6.55,2.35 -6.55,6.7 v 15.76 h -4.5 v -26.06 h 4.5 v 3.1 h 0.1 c 1.2,-2.65 4.45,-3.7 7.2,-3.7 2.65,0 5.55,0.7 7.71,4.5 1.6,-3.3 5.05,-4.5 8.5,-4.5 5.6,0 10.01,3.35 10.01,10.21 v 16.46 h -4.5 v -15.97 z"
   id="path98"
   style="fill:#ffff00" /><path
   d="m 901.72,39.59999 h -0.1 c -1.35,2.35 -4.25,3.65 -7.15,3.65 -5.05,0 -10.06,-2.75 -10.06,-9.81 v -16.86 h 4.5 v 15.16 c 0,3.9 1.6,7.3 6.05,7.3 4.2,0 6.75,-2.85 6.75,-7.8 v -14.66 h 4.5 v 26.06 h -4.5 v -3.04 z"
   id="path100"
   style="fill:#ffff00" /><path
   d="m 930.6,39.59999 h -0.1 c -1.35,2.35 -4.25,3.65 -7.15,3.65 -5.05,0 -10.06,-2.75 -10.06,-9.81 v -16.86 h 4.5 v 15.16 c 0,3.9 1.6,7.3 6.05,7.3 4.2,0 6.75,-2.85 6.75,-7.8 v -14.66 h 4.5 v 26.06 h -4.5 v -3.04 z"
   id="path102"
   style="fill:#ffff00" /><path
   d="m 945.12,35.03999 c 0.3,2.8 2.65,4.25 5.4,4.25 4.05,0 5.15,-2.2 5.15,-3.75 0,-1.7 -1.1,-2.75 -4.6,-3.7 l -4.55,-1.25 c -3.85,-1.05 -5.3,-3.6 -5.3,-6.7 0,-4.3 3.25,-7.9 9.31,-7.9 6.65,0 8.96,4.2 8.96,8.1 h -4.2 c -0.35,-2.95 -1.85,-4.4 -4.85,-4.4 -2.85,0 -4.7,1.7 -4.7,3.75 0,1.45 0.8,2.55 2.9,3.15 l 6.1,1.75 c 4.1,1.2 5.45,3.45 5.45,6.81 0,5.3 -4.65,8.1 -9.46,8.1 -6.1,0 -9.66,-3.25 -9.81,-8.21 z"
   id="path104"
   style="fill:#ffff00" /><path
   d="m 990.35,37.59999 c -3.5,3.9 -7.2,5.65 -11.76,5.65 -9.26,0 -14.21,-6.7 -14.21,-13.66 0,-7.4 5.3,-13.61 13.46,-13.61 8.06,0 13.66,6.15 13.66,15.36 h -22.31 c 0.7,4.45 4.3,7.71 9.36,7.71 3.2,0 6.05,-1.5 8.35,-4.2 z m -3.95,-9.96 c -0.45,-4.3 -3.95,-7.45 -8.61,-7.45 -5.5,0 -8.15,3.9 -8.61,7.45 z"
   id="path106"
   style="fill:#ffff00" /><path
   d="m 1014.31,39.59999 h -0.1 c -1.35,2.35 -4.25,3.65 -7.15,3.65 -5.05,0 -10.06,-2.75 -10.06,-9.81 v -16.86 h 4.5 v 15.16 c 0,3.9 1.6,7.3 6.05,7.3 4.2,0 6.75,-2.85 6.75,-7.8 v -14.66 h 4.5 v 26.06 h -4.5 v -3.04 z"
   id="path108"
   style="fill:#ffff00" /><path
   d="m 1059.55,26.68999 c 0,-4.5 -2.6,-6.5 -5.7,-6.5 -3.75,0 -6.55,2.35 -6.55,6.7 v 15.76 h -4.5 v -15.96 c 0,-4.5 -2.6,-6.5 -5.7,-6.5 -3.75,0 -6.55,2.35 -6.55,6.7 v 15.76 h -4.5 v -26.06 h 4.5 v 3.1 h 0.1 c 1.2,-2.65 4.45,-3.7 7.2,-3.7 2.65,0 5.55,0.7 7.71,4.5 1.6,-3.3 5.05,-4.5 8.5,-4.5 5.6,0 10.01,3.35 10.01,10.21 v 16.46 h -4.5 v -15.97 z"
   id="path110"
   style="fill:#ffff00" />
</svg>
