<?xml version="1.0" encoding="UTF-8" standalone="no"?>
<!-- Generator: Adobe Illustrator 23.0.1, SVG Export Plug-In . SVG Version: 6.00 Build 0)  -->

<svg
   version="1.1"
   id="Layer_1"
   x="0px"
   y="0px"
   viewBox="0 0 1064.0699 53.659988"
   xml:space="preserve"
   sodipodi:docname="EKM-logo-white-navbar.svg"
   width="1064.0699"
   height="53.659988"
   inkscape:version="1.2.1 (9c6d41e410, 2022-07-14)"
   xmlns:inkscape="http://www.inkscape.org/namespaces/inkscape"
   xmlns:sodipodi="http://sodipodi.sourceforge.net/DTD/sodipodi-0.dtd"
   xmlns="http://www.w3.org/2000/svg"
   xmlns:svg="http://www.w3.org/2000/svg"><defs
   id="defs121" /><sodipodi:namedview
   id="namedview119"
   pagecolor="#ffffff"
   bordercolor="#666666"
   borderopacity="1.0"
   inkscape:pageshadow="2"
   inkscape:pageopacity="0.0"
   inkscape:pagecheckerboard="0"
   inkscape:showpageshadow="2"
   inkscape:deskcolor="#d1d1d1"
   showgrid="false"
   inkscape:zoom="8"
   inkscape:cx="1012.125"
   inkscape:cy="48.625"
   inkscape:window-width="1920"
   inkscape:window-height="1057"
   inkscape:window-x="-8"
   inkscape:window-y="-8"
   inkscape:window-maximized="1"
   inkscape:current-layer="Layer_1" />
<g
   id="g116"
   transform="translate(-107.97,-485.17001)">
	<g
   id="g68">
		<g
   id="g22">
			<g
   id="g4">
				<rect
   x="509.38"
   y="485.17001"
   width="4.3000002"
   height="47.27"
   id="rect2" />
			</g>
			<g
   id="g8">
				<rect
   x="494.16"
   y="485.17001"
   width="4.3000002"
   height="47.27"
   id="rect6" />
			</g>
			<g
   id="g12">
				<rect
   x="448.95999"
   y="485.17001"
   width="4.3000002"
   height="47.27"
   id="rect10" />
			</g>
			<g
   id="g16">
				<rect
   x="429.23001"
   y="485.17001"
   width="4.3000002"
   height="47.27"
   id="rect14" />
			</g>
			<g
   id="g20">
				<rect
   x="383.17001"
   y="485.17001"
   width="4.3000002"
   height="47.27"
   id="rect18" />
			</g>
		</g>
		<g
   id="g44">
			<g
   id="g26">
				<rect
   x="323.81"
   y="485.17001"
   width="4.3000002"
   height="47.27"
   id="rect24" />
			</g>
			<g
   id="g30">
				<rect
   x="347.37"
   y="485.17001"
   width="4.3000002"
   height="47.27"
   id="rect28" />
			</g>
			<g
   id="g34">
				<rect
   x="263.39001"
   y="485.17001"
   width="4.3000002"
   height="47.27"
   id="rect32" />
			</g>
			<g
   id="g38">
				<rect
   x="225.35001"
   y="485.17001"
   width="4.3000002"
   height="47.27"
   id="rect36" />
			</g>
			<g
   id="g42">
				<rect
   x="107.97"
   y="485.17001"
   width="4.3000002"
   height="47.27"
   id="rect40" />
			</g>
		</g>
		<g
   id="g66">
			<g
   id="g48">
				<rect
   x="532.79999"
   y="485.17001"
   width="4.3000002"
   height="47.27"
   id="rect46" />
			</g>
			<g
   id="g52">
				<rect
   x="541.65002"
   y="485.17001"
   width="4.3000002"
   height="47.27"
   id="rect50" />
			</g>
			<g
   id="g56">
				<rect
   x="550.5"
   y="485.17001"
   width="4.3000002"
   height="47.27"
   id="rect54" />
			</g>
			<g
   id="g60">
				<rect
   x="559.34998"
   y="485.17001"
   width="4.3000002"
   height="47.27"
   id="rect58" />
			</g>
			<g
   id="g64">
				<rect
   x="568.20001"
   y="485.17001"
   width="4.3000002"
   height="47.27"
   id="rect62" />
			</g>
		</g>
	</g>
	<g
   id="g114">
		<g
   id="g112">
			<path
   d="m 612.19,489.8 h 19.66 v 4.5 h -14.86 v 12.06 h 14.86 v 4.5 h -14.86 v 12.46 h 14.86 v 4.5 h -19.66 z"
   id="path70" />
			<path
   d="m 661.89,522.77 c -3.5,3.9 -7.2,5.65 -11.76,5.65 -9.26,0 -14.21,-6.7 -14.21,-13.66 0,-7.4 5.3,-13.61 13.46,-13.61 8.06,0 13.66,6.15 13.66,15.36 h -22.31 c 0.7,4.45 4.3,7.71 9.36,7.71 3.2,0 6.05,-1.5 8.35,-4.2 z m -3.95,-9.96 c -0.45,-4.3 -3.95,-7.45 -8.61,-7.45 -5.5,0 -8.15,3.9 -8.61,7.45 z"
   id="path72" />
			<path
   d="m 671.29,520.21 c 0.3,2.8 2.65,4.25 5.4,4.25 4.05,0 5.15,-2.2 5.15,-3.75 0,-1.7 -1.1,-2.75 -4.6,-3.7 l -4.55,-1.25 c -3.85,-1.05 -5.3,-3.6 -5.3,-6.7 0,-4.3 3.25,-7.9 9.31,-7.9 6.65,0 8.96,4.2 8.96,8.1 h -4.2 c -0.35,-2.95 -1.85,-4.4 -4.85,-4.4 -2.85,0 -4.7,1.7 -4.7,3.75 0,1.45 0.8,2.55 2.9,3.15 l 6.1,1.75 c 4.1,1.2 5.45,3.45 5.45,6.81 0,5.3 -4.65,8.1 -9.46,8.1 -6.1,0 -9.66,-3.25 -9.81,-8.21 z"
   id="path74" />
			<path
   d="m 692.94,495.45 h 4.5 v 6.3 h 4.15 v 3.95 h -4.15 v 16.01 c 0,1.4 0.45,1.9 2.2,1.9 h 2.05 v 4.15 c -0.65,0.05 -1.7,0.05 -2.75,0.05 -4.6,0 -6,-1.6 -6,-5.6 V 505.7 h -3.6 v -3.95 h 3.6 z"
   id="path76" />
			<path
   d="m 709.07,490.35 c 1.75,0 3.15,1.4 3.15,3.15 0,1.75 -1.4,3.15 -3.15,3.15 -1.75,0 -3.15,-1.4 -3.15,-3.15 0,-1.75 1.4,-3.15 3.15,-3.15 z m -2.25,11.4 h 4.5 v 26.06 h -4.5 z"
   id="path78" />
			<path
   d="m 751.19,489.8 h 6.15 l -17.06,18.56 17.46,19.46 h -6.9 l -15.16,-17.36 v 17.36 h -4.8 V 489.8 h 4.8 v 17.41 z"
   id="path80" />
			<path
   d="m 764.16,490.35 c 1.75,0 3.15,1.4 3.15,3.15 0,1.75 -1.4,3.15 -3.15,3.15 -1.75,0 -3.15,-1.4 -3.15,-3.15 0,-1.75 1.4,-3.15 3.15,-3.15 z m -2.25,11.4 h 4.5 v 26.06 h -4.5 z"
   id="path82" />
			<path
   d="m 773.81,501.75 h 4.5 v 3.7 h 0.1 c 2.25,-4.05 4.4,-4.3 8.21,-4.3 v 4.75 c -0.65,-0.15 -1.35,-0.25 -2.05,-0.25 -3.75,0 -6.25,2.6 -6.25,7.35 v 14.81 h -4.5 v -26.06 z"
   id="path84" />
			<path
   d="m 791.09,501.75 h 4.5 v 27.97 c 0,5.9 -3.05,8.7 -7.75,9.11 v -4.2 c 2.15,0 3.25,-1.7 3.25,-4.45 z m 2.25,-11.4 c 1.75,0 3.15,1.4 3.15,3.15 0,1.75 -1.4,3.15 -3.15,3.15 -1.75,0 -3.15,-1.4 -3.15,-3.15 0,-1.75 1.4,-3.15 3.15,-3.15 z"
   id="path86" />
			<path
   d="m 820.26,510.36 c 0,-4.3 -4.3,-5.25 -7.8,-5.25 -2.45,0 -4.75,0.6 -7.2,1.8 l -1.95,-3.75 c 3.95,-1.65 7.05,-2 9.41,-2 6.25,0 12.06,2.65 12.06,8.86 v 17.81 h -4.2 v -2.8 c -2.3,2.4 -4.85,3.4 -8.31,3.4 -6.35,0 -11.36,-3.55 -11.36,-9.36 0,-4.75 4.05,-8.96 11.31,-8.96 2.75,0 5.65,0.8 8.05,2.95 v -2.7 z m -7.21,3.7 c -5.5,0 -7.35,2.65 -7.35,5.2 0,2.55 1.85,5.2 7.35,5.2 5.5,0 7.35,-2.65 7.35,-5.2 0.01,-2.55 -1.84,-5.2 -7.35,-5.2 z"
   id="path88" />
			<path
   d="m 849.06,512.66 c 0,-3.9 -1.6,-7.3 -6.05,-7.3 -4.2,0 -6.75,2.85 -6.75,7.81 v 14.66 h -4.5 v -26.06 h 4.5 v 3.05 h 0.1 c 1.35,-2.35 4.25,-3.65 7.15,-3.65 5.05,0 10.06,2.75 10.06,9.81 v 16.86 h -4.5 v -15.18 z"
   id="path90" />
			<path
   d="m 882.82,489.8 h 4.5 v 38.02 h -4.5 v -4 h -0.1 c -1.9,2.7 -5.2,4.6 -9.71,4.6 -7.25,0 -13.76,-5.7 -13.76,-13.91 0,-7.5 6.2,-13.36 13.56,-13.36 3.85,0 7.76,1.6 9.91,4.7 h 0.1 z m -9.21,15.55 c -6.1,0 -9.56,4.85 -9.56,9.21 0,6 4.65,9.66 9.41,9.66 5.15,0 9.36,-4.2 9.36,-9.41 0,-5.25 -4.3,-9.46 -9.21,-9.46 z"
   id="path92" />
			<path
   d="m 911.87,524.77 h -0.1 c -1.35,2.35 -4.25,3.65 -7.15,3.65 -5.05,0 -10.06,-2.75 -10.06,-9.81 v -16.86 h 4.5 v 15.16 c 0,3.9 1.6,7.3 6.05,7.3 4.2,0 6.75,-2.85 6.75,-7.8 v -14.66 h 4.5 v 26.06 h -4.5 v -3.04 z"
   id="path94" />
			<path
   d="m 926.39,520.21 c 0.3,2.8 2.65,4.25 5.4,4.25 4.05,0 5.15,-2.2 5.15,-3.75 0,-1.7 -1.1,-2.75 -4.6,-3.7 l -4.55,-1.25 c -3.85,-1.05 -5.3,-3.6 -5.3,-6.7 0,-4.3 3.25,-7.9 9.31,-7.9 6.65,0 8.96,4.2 8.96,8.1 h -4.2 c -0.35,-2.95 -1.85,-4.4 -4.85,-4.4 -2.85,0 -4.7,1.7 -4.7,3.75 0,1.45 0.8,2.55 2.9,3.15 l 6.1,1.75 c 4.1,1.2 5.45,3.45 5.45,6.81 0,5.3 -4.65,8.1 -9.46,8.1 -6.1,0 -9.66,-3.25 -9.81,-8.21 z"
   id="path96" />
			<path
   d="m 980.81,511.86 c 0,-4.5 -2.6,-6.5 -5.7,-6.5 -3.75,0 -6.55,2.35 -6.55,6.7 v 15.76 h -4.5 v -15.96 c 0,-4.5 -2.6,-6.5 -5.7,-6.5 -3.75,0 -6.55,2.35 -6.55,6.7 v 15.76 h -4.5 v -26.06 h 4.5 v 3.1 h 0.1 c 1.2,-2.65 4.45,-3.7 7.2,-3.7 2.65,0 5.55,0.7 7.71,4.5 1.6,-3.3 5.05,-4.5 8.5,-4.5 5.6,0 10.01,3.35 10.01,10.21 v 16.46 h -4.5 v -15.97 z"
   id="path98" />
			<path
   d="m 1009.69,524.77 h -0.1 c -1.35,2.35 -4.25,3.65 -7.15,3.65 -5.05,0 -10.06,-2.75 -10.06,-9.81 v -16.86 h 4.5 v 15.16 c 0,3.9 1.6,7.3 6.05,7.3 4.2,0 6.75,-2.85 6.75,-7.8 v -14.66 h 4.5 v 26.06 h -4.5 v -3.04 z"
   id="path100" />
			<path
   d="m 1038.57,524.77 h -0.1 c -1.35,2.35 -4.25,3.65 -7.15,3.65 -5.05,0 -10.06,-2.75 -10.06,-9.81 v -16.86 h 4.5 v 15.16 c 0,3.9 1.6,7.3 6.05,7.3 4.2,0 6.75,-2.85 6.75,-7.8 v -14.66 h 4.5 v 26.06 h -4.5 v -3.04 z"
   id="path102" />
			<path
   d="m 1053.09,520.21 c 0.3,2.8 2.65,4.25 5.4,4.25 4.05,0 5.15,-2.2 5.15,-3.75 0,-1.7 -1.1,-2.75 -4.6,-3.7 l -4.55,-1.25 c -3.85,-1.05 -5.3,-3.6 -5.3,-6.7 0,-4.3 3.25,-7.9 9.31,-7.9 6.65,0 8.96,4.2 8.96,8.1 h -4.2 c -0.35,-2.95 -1.85,-4.4 -4.85,-4.4 -2.85,0 -4.7,1.7 -4.7,3.75 0,1.45 0.8,2.55 2.9,3.15 l 6.1,1.75 c 4.1,1.2 5.45,3.45 5.45,6.81 0,5.3 -4.65,8.1 -9.46,8.1 -6.1,0 -9.66,-3.25 -9.81,-8.21 z"
   id="path104" />
			<path
   d="m 1098.32,522.77 c -3.5,3.9 -7.2,5.65 -11.76,5.65 -9.26,0 -14.21,-6.7 -14.21,-13.66 0,-7.4 5.3,-13.61 13.46,-13.61 8.06,0 13.66,6.15 13.66,15.36 h -22.31 c 0.7,4.45 4.3,7.71 9.36,7.71 3.2,0 6.05,-1.5 8.35,-4.2 z m -3.95,-9.96 c -0.45,-4.3 -3.95,-7.45 -8.61,-7.45 -5.5,0 -8.15,3.9 -8.61,7.45 z"
   id="path106" />
			<path
   d="m 1122.28,524.77 h -0.1 c -1.35,2.35 -4.25,3.65 -7.15,3.65 -5.05,0 -10.06,-2.75 -10.06,-9.81 v -16.86 h 4.5 v 15.16 c 0,3.9 1.6,7.3 6.05,7.3 4.2,0 6.75,-2.85 6.75,-7.8 v -14.66 h 4.5 v 26.06 h -4.5 v -3.04 z"
   id="path108" />
			<path
   d="m 1167.52,511.86 c 0,-4.5 -2.6,-6.5 -5.7,-6.5 -3.75,0 -6.55,2.35 -6.55,6.7 v 15.76 h -4.5 v -15.96 c 0,-4.5 -2.6,-6.5 -5.7,-6.5 -3.75,0 -6.55,2.35 -6.55,6.7 v 15.76 h -4.5 v -26.06 h 4.5 v 3.1 h 0.1 c 1.2,-2.65 4.45,-3.7 7.2,-3.7 2.65,0 5.55,0.7 7.71,4.5 1.6,-3.3 5.05,-4.5 8.5,-4.5 5.6,0 10.01,3.35 10.01,10.21 v 16.46 h -4.5 v -15.97 z"
   id="path110" />
		</g>
	</g>
</g>
<path
   style="fill:#ffffff;stroke-width:0.5"
   d="M 0,23.75 V 0.25 h 2 2 v 23.5 23.5 H 2 0 Z"
   id="path557" /><path
   style="fill:#ffffff;stroke-width:0.5"
   d="m 121.73102,23.75 c 0,-13.0625 0.0646,-18.40625 0.14354,-11.875 0.0789,6.53125 0.0789,17.21875 0,23.75 -0.079,6.53125 -0.14354,1.1875 -0.14354,-11.875 z"
   id="path559" /><path
   style="fill:#ffffff;stroke-width:0.125"
   d="M 117.375,23.625 V 0.0625 h 2.125 2.125 V 23.625 47.1875 h -2.125 -2.125 z"
   id="path561" /><path
   style="fill:#ffffff;stroke-width:0.125"
   d="M 155.5,23.625 V 0.0625 h 2.0625 2.0625 V 23.625 47.1875 H 157.5625 155.5 Z"
   id="path563" /><path
   style="fill:#ffffff;stroke-width:0.125"
   d="M 215.875,23.625 V 0.0625 H 218 220.125 V 23.625 47.1875 H 218 215.875 Z"
   id="path565" /><path
   style="fill:#ffffff;stroke-width:0.125"
   d="M 239.5,23.625 V 0.0625 h 2.0625 2.0625 V 23.625 47.1875 H 241.5625 239.5 Z"
   id="path567" /><path
   style="fill:#ffffff;stroke-width:0.125"
   d="M 275.25,23.625 V 0.0625 h 2.125 2.125 V 23.625 47.1875 h -2.125 -2.125 z"
   id="path569" /><path
   style="fill:#ffffff;stroke-width:0.125"
   d="M 321.375,23.625 V 0.0625 h 2.0625 2.0625 V 23.625 47.1875 h -2.0625 -2.0625 z"
   id="path571" /><path
   style="fill:#ffffff;stroke-width:0.125"
   d="M 341,23.625 V 0.0625 h 2.125 2.125 V 23.625 47.1875 H 343.125 341 Z"
   id="path573" /><path
   style="fill:#ffffff;stroke-width:0.125"
   d="M 386.25,23.625 V 0.0625 h 2.0625 2.0625 V 23.625 47.1875 h -2.0625 -2.0625 z"
   id="path575" /><path
   style="fill:#ffffff;stroke-width:0.125"
   d="M 401.5,23.625 V 0.0625 h 2.0625 2.0625 V 23.625 47.1875 H 403.5625 401.5 Z"
   id="path577" /><path
   style="fill:#ffffff;stroke-width:0.125"
   d="M 424.875,23.625 V 0.0625 H 427 429.125 V 23.625 47.1875 H 427 424.875 Z"
   id="path579" /><path
   style="fill:#ffffff;stroke-width:0.125"
   d="M 433.75,23.625 V 0.0625 h 2.0625 2.0625 V 23.625 47.1875 h -2.0625 -2.0625 z"
   id="path581" /><path
   style="fill:#ffffff;stroke-width:0.125"
   d="m 446.81121,23.625 c 0,-12.99375 0.0146,-18.2908428 0.0325,-11.771317 0.0179,6.519526 0.0179,17.150776 0,23.624999 -0.0179,6.474225 -0.0325,1.140068 -0.0325,-11.853682 z"
   id="path583" /><path
   style="fill:#ffffff;stroke-width:0.125"
   d="M 442.625,23.625 V 0.0625 h 2.0625 2.0625 V 23.625 47.1875 h -2.0625 -2.0625 z"
   id="path585" /><path
   style="fill:#ffffff;stroke-width:0.125"
   d="M 451.375,23.625 V 0.0625 h 2.125 2.125 V 23.625 47.1875 h -2.125 -2.125 z"
   id="path587" /><path
   style="fill:#ffffff;stroke-width:0.125"
   d="M 460.25,23.625 V 0.0625 h 2.125 2.125 V 23.625 47.1875 h -2.125 -2.125 z"
   id="path589" /><path
   style="fill:#ffffff;stroke-width:0.125"
   d="M 504.25,23.625 V 4.6875 h 9.8125 9.8125 V 6.875 9.0625 H 516.4375 509 v 6.0625 6.0625 h 7.4375 7.4375 v 2.25 2.25 H 516.4375 509 v 6.25 6.25 h 7.4375 7.4375 v 2.1875 2.1875 h -9.8125 -9.8125 z"
   id="path591" /><path
   style="fill:#ffffff;stroke-width:0.125"
   d="m 540.3125,43.10421 c -1.98469,-0.242564 -4.07125,-0.878024 -5.53358,-1.685248 -6.22655,-3.437131 -8.56864,-11.484687 -5.28773,-18.168962 1.87385,-3.81765 5.17007,-6.250791 9.48817,-7.003804 2.04484,-0.35659 4.66992,-0.196178 6.57798,0.401965 2.04874,0.64224 3.60979,1.583593 5.1414,3.100382 2.53317,2.508667 4.00176,6.04817 4.25989,10.266902 l 0.0794,1.297055 h -11.15498 -11.15499 l 0.0881,0.53125 c 0.44814,2.701421 2.70262,5.431219 5.38605,6.521594 1.91057,0.776335 4.85836,0.916841 6.7353,0.321036 1.7739,-0.563098 3.46481,-1.618304 4.84293,-3.022206 l 0.71792,-0.731363 1.69459,1.346095 1.69459,1.346094 -1.22502,1.168859 c -2.54804,2.431243 -5.09893,3.74758 -8.16251,4.212107 -1.07771,0.163413 -3.23934,0.214126 -4.1875,0.09824 z m 9.68444,-15.63546 c -0.005,-0.389001 -0.24648,-1.32646 -0.5223,-2.03125 -0.87411,-2.233647 -2.76819,-4.015944 -5.11199,-4.810299 -1.47574,-0.500152 -3.83222,-0.59163 -5.35044,-0.207703 -2.42116,0.612258 -4.18931,1.990334 -5.31165,4.139826 -0.45823,0.877599 -0.95056,2.342766 -0.95056,2.828843 V 27.6875 h 8.625 c 8.13211,0 8.62482,-0.0125 8.62194,-0.21875 z"
   id="path593" /><path
   style="fill:#ffffff;stroke-width:0.125"
   d="m 567.0625,43.107762 c -1.20558,-0.191321 -2.63369,-0.619347 -3.5625,-1.067742 -2.40096,-1.159085 -4.01225,-3.558666 -4.28663,-6.38377 l -0.0577,-0.59375 h 2.03377 c 2.15749,0 2.18552,0.0079 2.18552,0.615259 0,0.435381 0.76837,1.744831 1.32481,2.257747 1.0962,1.010435 2.64345,1.457526 4.65154,1.344095 1.97961,-0.111824 3.30841,-0.77049 4.08347,-2.024115 0.34406,-0.55651 0.37768,-0.707136 0.37768,-1.692342 0,-0.946397 -0.039,-1.139457 -0.3125,-1.545822 -0.39409,-0.585591 -1.37497,-1.246913 -2.44912,-1.651222 -0.4574,-0.172164 -2.14241,-0.675756 -3.74447,-1.119094 -3.45981,-0.957429 -4.04824,-1.167694 -5.01318,-1.791364 -1.33824,-0.864947 -2.3302,-2.310071 -2.6551,-3.868045 -0.194,-0.930312 -0.16862,-2.567586 0.0545,-3.514072 0.33346,-1.41464 0.86869,-2.347445 1.98261,-3.455253 1.67319,-1.664013 3.53373,-2.390492 6.44978,-2.51842 1.7804,-0.07811 2.98007,0.06812 4.39903,0.536191 2.52063,0.831478 4.3635,2.927278 4.90434,5.577437 0.10815,0.529914 0.19663,1.162727 0.19663,1.40625 V 24.0625 H 575.58749 573.55 l -0.16046,-0.78125 c -0.19527,-0.950785 -0.79551,-2.116768 -1.31665,-2.557653 C 571.86093,20.544266 571.37812,20.251844 571,20.07377 570.3704,19.77727 570.17563,19.75 568.6875,19.75 c -1.56046,0 -1.65771,0.0155 -2.44858,0.390241 -1.38694,0.657189 -2.15968,1.641607 -2.31307,2.946713 -0.14472,1.231328 0.30794,2.16447 1.39828,2.882514 0.49159,0.32374 1.34662,0.623792 3.62826,1.273249 5.31407,1.512619 6.19107,1.854887 7.39305,2.885295 1.13123,0.969749 1.71121,2.188162 1.92291,4.039579 0.47726,4.173915 -1.95052,7.432753 -6.45585,8.665779 -0.86721,0.237339 -3.88499,0.411666 -4.75,0.274392 z"
   id="path595" /><path
   style="fill:#ffffff;stroke-width:0.125"
   d="m 588.76163,42.421091 c -1.73328,-0.287692 -2.91271,-1.227022 -3.41609,-2.720664 -0.27603,-0.819045 -0.27849,-0.896713 -0.31784,-10.044177 l -0.0396,-9.21875 h -1.80653 -1.80652 v -1.875 -1.875 H 583.1875 585 V 13.5 10.3125 h 2.18535 2.18536 l 0.0334,3.15625 0.0334,3.15625 2.09375,0.03427 2.09375,0.03427 v 1.868955 1.868955 l -2.09375,0.03427 -2.09375,0.03427 -0.0369,7.875 c -0.0203,4.33125 -0.002,8.174547 0.0414,8.54066 0.0568,0.482431 0.17587,0.774895 0.43262,1.0625 l 0.35427,0.39684 1.69806,0.04093 1.69807,0.04094 v 2.052815 2.052815 l -2.09375,-0.01461 c -1.15156,-0.008 -2.39789,-0.06509 -2.76962,-0.126796 z"
   id="path597" /><path
   style="fill:#ffffff;stroke-width:0.125"
   d="M 598.875,29.625 V 16.6875 h 2.1875 2.1875 V 29.625 42.5625 h -2.1875 -2.1875 z"
   id="path599" /><path
   style="fill:#ffffff;stroke-width:0.125"
   d="m 600.07384,11.24845 c -2.00249,-0.764872 -2.68971,-3.1535323 -1.39546,-4.8503845 0.49143,-0.6442913 1.47448,-1.1248757 2.31307,-1.1307806 0.91349,-0.00643 1.55256,0.2230079 2.16991,0.7790513 1.26374,1.138224 1.34483,3.1515634 0.17605,4.3708678 -0.83492,0.871017 -2.22949,1.226221 -3.26357,0.831246 z"
   id="path601" /><path
   style="fill:#ffffff;stroke-width:0.125"
   d="M 623,23.625 V 4.6875 h 2.3125 2.3125 v 8.6875 c 0,4.778125 0.0422,8.683519 0.0937,8.678652 0.0516,-0.0049 3.55312,-3.90998 7.78125,-8.678031 l 7.6875,-8.6691832 2.96875,-0.00947 c 1.63281,-0.00521 2.96875,0.020288 2.96875,0.056657 0,0.036369 -3.78281,4.1802278 -8.40625,9.2085742 -4.62344,5.028346 -8.40625,9.180702 -8.40625,9.227456 0,0.04676 3.86719,4.394598 8.59375,9.661873 4.72656,5.267273 8.59375,9.607037 8.59375,9.643917 0,0.03688 -1.49118,0.06705 -3.31373,0.06705 h -3.31372 l -7.50783,-8.59375 c -4.1293,-4.726563 -7.56,-8.6125 -7.62377,-8.635416 -0.0706,-0.02535 -0.11595,3.339607 -0.11595,8.59375 V 42.5625 H 625.3125 623 Z"
   id="path603" /><path
   style="fill:#ffffff;stroke-width:0.125"
   d="m 655.37419,11.328147 c -1.92968,-0.6328 -2.80758,-2.6682123 -1.9001,-4.4053381 1.17095,-2.2414514 4.29396,-2.2375914 5.43216,0.00671 0.7734,1.5249891 0.18304,3.3859511 -1.31688,4.1511551 -0.5526,0.281914 -1.71437,0.411701 -2.21518,0.247469 z"
   id="path605" /><path
   style="fill:#ffffff;stroke-width:0.125"
   d="M 654,29.625 V 16.6875 h 2.1875 2.1875 V 29.625 42.5625 H 656.1875 654 Z"
   id="path607" /><path
   style="fill:#ffffff;stroke-width:0.125"
   d="M 665.875,29.625 V 16.6875 h 2.1875 2.1875 V 18.5 c 0,0.996875 0.0469,1.8125 0.10419,1.8125 0.0573,0 0.39186,-0.441664 0.74345,-0.981477 1.52432,-2.340309 3.32076,-3.25175 6.43361,-3.264162 l 1.09375,-0.0044 v 2.325874 c 0,2.164183 -0.0152,2.319961 -0.21875,2.240825 -0.12031,-0.04678 -0.69688,-0.115491 -1.28125,-0.1527 -3.0801,-0.196121 -5.37198,1.281332 -6.31598,4.071568 -0.48732,1.44043 -0.55902,2.80441 -0.55902,10.634546 V 42.5625 h -2.1875 -2.1875 z"
   id="path609" /><path
   style="fill:#ffffff;stroke-width:0.125"
   d="m 684.33211,11.234118 c -1.26277,-0.387913 -2.21946,-1.9174429 -2.0361,-3.2552559 0.21198,-1.5465646 1.49204,-2.6948682 3.01146,-2.7014924 1.79867,-0.00784 3.10929,1.2690182 3.11539,3.0351303 0.005,1.4184258 -0.88902,2.611022 -2.23777,2.985463 -0.6484,0.18001 -1.11105,0.164069 -1.85298,-0.06384 z"
   id="path611" /><path
   style="fill:#ffffff;stroke-width:0.125"
   d="m 679.875,51.575874 c 0,-2.123895 0.004,-2.138374 0.64956,-2.138374 0.43895,0 1.45122,-0.639114 1.79268,-1.131845 0.1802,-0.26002 0.43566,-0.819863 0.56769,-1.244096 0.23106,-0.742398 0.24007,-1.326583 0.24007,-15.572695 V 16.6875 h 2.25 2.25 l -0.003,13.71875 c -0.002,7.545312 -0.0566,14.409917 -0.12227,15.254679 -0.26596,3.420103 -1.63272,5.76452 -4.06239,6.968256 -0.89823,0.44501 -2.57637,0.933315 -3.2075,0.933315 h -0.355 z"
   id="path613" /><path
   style="fill:#ffffff;stroke-width:0.125"
   d="m 702.08311,43.050424 c -1.72333,-0.251843 -3.46885,-0.845304 -4.8055,-1.633824 -1.0183,-0.600714 -2.6514,-2.255943 -3.18593,-3.2291 -0.77666,-1.41396 -1.02942,-2.459431 -1.02753,-4.25 0.002,-1.422068 0.0359,-1.65849 0.38249,-2.630521 1.28621,-3.60707 4.62003,-5.821862 9.38648,-6.235819 3.26924,-0.283928 6.50936,0.554922 8.65434,2.240565 0.99456,0.781574 0.92416,0.88921 0.86732,-1.326102 -0.049,-1.910811 -0.0657,-2.016982 -0.44096,-2.817952 -0.73672,-1.572298 -2.14962,-2.515217 -4.49316,-2.998581 -1.04095,-0.214701 -1.55464,-0.245445 -3.29566,-0.197243 -2.34818,0.06501 -3.58534,0.324634 -5.64205,1.184004 l -1.17593,0.491343 -0.90351,-1.722925 C 695.90658,18.97666 695.5,18.147299 695.5,18.081244 c 0,-0.150241 1.81561,-0.814685 3.33612,-1.220888 1.84622,-0.493221 3.10664,-0.683298 5.03888,-0.759889 6.82526,-0.270543 11.73288,2.404238 12.68869,6.915671 0.14988,0.707431 0.18235,2.506307 0.18414,10.202612 l 0.002,9.34375 h -2.0625 -2.0625 v -1.385488 -1.385488 l -0.78125,0.709273 c -1.4718,1.336202 -3.14925,2.145717 -5.18018,2.49988 -1.14611,0.199865 -3.3867,0.224199 -4.58046,0.04975 z m 5.60567,-3.97367 c 2.16422,-0.446692 3.66911,-1.50812 4.40603,-3.107674 0.45559,-0.988899 0.47004,-2.604204 0.0332,-3.718159 -0.3627,-0.924999 -1.39254,-1.997182 -2.37806,-2.475841 -1.36614,-0.66352 -2.48932,-0.872608 -4.6875,-0.872608 -2.2489,0 -3.28144,0.200249 -4.68447,0.908497 -1.92439,0.97143 -2.94959,2.944763 -2.61364,5.030816 0.30135,1.871235 1.37449,3.09618 3.3925,3.872396 1.606,0.617741 4.51363,0.779138 6.53189,0.362573 z"
   id="path615" /><path
   style="fill:#ffffff;stroke-width:0.125"
   d="M 723.875,29.625 V 16.6875 h 2.1875 2.1875 v 1.5 c 0,0.825 0.0441,1.5 0.098,1.5 0.0539,0 0.19314,-0.160984 0.30937,-0.357743 0.40058,-0.678131 1.81415,-1.869271 2.74791,-2.315515 1.50807,-0.720713 2.30378,-0.884318 4.28217,-0.880448 3.19464,0.0062 5.30596,0.791053 7.19491,2.674444 1.18223,1.178747 1.77308,2.159894 2.26205,3.756304 0.28641,0.935052 0.28655,0.93959 0.32547,10.466708 l 0.0389,9.53125 h -2.18632 -2.18632 l -0.0437,-8.59375 c -0.0396,-7.791063 -0.0644,-8.663068 -0.26563,-9.335881 -0.68636,-2.294981 -2.05046,-3.75306 -3.99572,-4.271003 -0.871,-0.231915 -2.80512,-0.220366 -3.74175,0.02234 -2.25317,0.583853 -3.87156,2.302715 -4.5526,4.835206 -0.18424,0.685105 -0.21533,1.793553 -0.2542,9.061837 l -0.0443,8.28125 h -2.18169 -2.18169 z"
   id="path617" /><path
   style="fill:#ffffff;stroke-width:0.125"
   d="m 762.70728,42.996596 c -5.39298,-1.021885 -9.56966,-4.851399 -10.90603,-9.999531 -0.40154,-1.546828 -0.54329,-4.168188 -0.30562,-5.651624 0.80492,-5.023982 4.39812,-9.147586 9.31982,-10.695542 3.06174,-0.962967 6.84292,-0.716307 9.71027,0.633436 1.3021,0.61293 2.87387,1.793505 3.601,2.704739 0.30696,0.384683 0.6009,0.699426 0.65319,0.699426 0.0523,0 0.0951,-3.6 0.0951,-8 v -8 h 2.1875 2.1875 V 23.625 42.5625 h -2.1875 -2.1875 v -2.023429 -2.023429 l -0.88848,0.964233 c -1.52098,1.650654 -3.39268,2.760837 -5.61152,3.328431 -1.41076,0.360878 -4.25773,0.455459 -5.66772,0.18829 z m 4.99147,-4.186084 c 3.2965,-0.840132 5.78486,-3.194788 6.80092,-6.435512 0.38229,-1.219298 0.47464,-3.298293 0.20448,-4.603154 -0.67945,-3.281794 -2.94901,-5.929911 -6.08964,-7.105409 -0.93139,-0.348606 -1.23834,-0.400112 -2.67701,-0.449202 -1.34743,-0.04598 -1.81134,-0.01106 -2.71585,0.204375 -3.35729,0.799656 -6.01315,3.393607 -6.92738,6.76589 -0.35515,1.310056 -0.29299,3.630525 0.13562,5.0625 0.1852,0.61875 0.54393,1.512967 0.79717,1.98715 0.86236,1.614734 2.77097,3.349877 4.50404,4.09469 1.72443,0.741095 4.16868,0.937151 5.96765,0.478672 z"
   id="path619" /><path
   style="fill:#ffffff;stroke-width:0.125"
   d="m 794.6875,43.057317 c -3.99117,-0.620593 -6.66213,-2.934961 -7.71192,-6.682317 -0.27689,-0.988381 -0.28062,-1.108559 -0.32127,-10.34375 l -0.0411,-9.34375 h 2.1862 2.1862 l 0.0439,8.40625 c 0.0428,8.188101 0.051,8.431597 0.31663,9.382994 0.86076,3.082705 2.75336,4.583461 5.77887,4.582425 3.25173,-0.0011 5.53928,-1.704693 6.4274,-4.786584 0.36215,-1.256729 0.43906,-3.065571 0.44339,-10.428835 L 804,16.6875 h 2.1875 2.1875 V 29.625 42.5625 H 806.1875 804 v -1.5 c 0,-0.825 -0.051,-1.5 -0.11328,-1.5 -0.0623,0 -0.31303,0.278052 -0.55718,0.617892 -0.8149,1.134279 -2.25086,2.073712 -4.01704,2.628029 -1.00584,0.315683 -3.37539,0.443201 -4.625,0.248896 z"
   id="path621" /><path
   style="fill:#ffffff;stroke-width:0.125"
   d="m 821.60351,43.008735 c -2.22177,-0.393065 -3.64133,-1.097129 -5.04637,-2.502875 -1.3634,-1.36408 -1.97128,-2.659769 -2.24589,-4.78711 l -0.0847,-0.65625 h 2.05373 2.05374 l 0.21017,0.755925 c 0.61635,2.216902 2.55383,3.494075 5.30055,3.494075 3.06613,0 4.97018,-1.305269 5.13185,-3.518004 0.10393,-1.42241 -0.56604,-2.383585 -2.19137,-3.14385 -0.54815,-0.256407 -2.43757,-0.86248 -4.32887,-1.388587 -3.85572,-1.072552 -4.89858,-1.513303 -5.94716,-2.513479 -1.28979,-1.230247 -1.88418,-2.734606 -1.88418,-4.76869 0,-1.495164 0.16379,-2.253109 0.75199,-3.47989 0.55863,-1.165109 1.4698,-2.182348 2.62165,-2.92682 1.69932,-1.098326 3.71281,-1.56747 6.31386,-1.471132 2.91443,0.107945 4.5994,0.743143 6.1896,2.333347 1.32989,1.329885 1.96083,2.723267 2.19427,4.845855 l 0.0859,0.78125 h -2.06238 -2.06239 l -0.14258,-0.71875 c -0.31444,-1.585042 -1.11287,-2.678778 -2.37846,-3.258187 -0.93575,-0.428401 -2.96467,-0.536336 -4.08358,-0.217241 -2.7392,0.781173 -3.91012,3.492555 -2.37657,5.503153 0.50345,0.660045 1.41599,1.027318 5.43183,2.186167 4.72969,1.36484 5.91141,1.903869 6.93136,3.161674 0.96067,1.184699 1.33548,2.403619 1.33548,4.343184 0,2.351232 -0.58576,3.833291 -2.12951,5.387979 -0.75735,0.762713 -1.17732,1.065452 -2.12589,1.532487 -0.65016,0.320104 -1.6321,0.698795 -2.1821,0.841534 -1.28756,0.334155 -3.96404,0.4266 -5.33399,0.184235 z"
   id="path623" /><path
   style="fill:#ffffff;stroke-width:0.125"
   d="M 839.375,29.625 V 16.6875 h 2.1875 2.1875 v 1.5 c 0,0.825 0.0468,1.5 0.10395,1.5 0.0572,0 0.28432,-0.27836 0.50477,-0.618578 0.78652,-1.213809 2.29108,-2.206418 4.07878,-2.690907 1.14114,-0.309263 3.66762,-0.38429 4.8125,-0.142911 2.03147,0.428301 3.88488,1.718136 5.08634,3.539722 l 0.51105,0.774825 0.4532,-0.73424 c 0.96272,-1.559717 2.77312,-2.81665 4.89416,-3.397931 0.83554,-0.228983 1.32925,-0.27256 3.11775,-0.275183 1.8122,-0.0027 2.27113,0.03739 3.11775,0.272067 3.32873,0.922705 5.42984,3.002117 6.46489,6.398136 0.28515,0.935606 0.28581,0.956501 0.32479,10.34375 l 0.039,9.40625 h -2.18724 -2.18725 l -0.037,-8.84375 c -0.0367,-8.766387 -0.0395,-8.850936 -0.31541,-9.665266 -0.84422,-2.491482 -2.47988,-3.72112 -5.10407,-3.837076 -1.52969,-0.06759 -2.39613,0.09689 -3.54925,0.673772 -1.48994,0.745387 -2.35461,1.767471 -2.97259,3.513754 l -0.34364,0.971066 -0.0376,8.59375 -0.0376,8.59375 h -2.1764 -2.1764 l -0.037,-8.84375 c -0.0367,-8.766387 -0.0395,-8.850936 -0.31541,-9.665266 -0.84422,-2.491482 -2.47988,-3.72112 -5.10407,-3.837076 -1.52969,-0.06759 -2.39613,0.09689 -3.54925,0.673772 -1.48994,0.745387 -2.35461,1.767471 -2.97259,3.513754 l -0.34364,0.971066 -0.0376,8.59375 -0.0376,8.59375 h -2.18115 -2.18114 z"
   id="path625" /><path
   style="fill:#ffffff;stroke-width:0.125"
   d="m 892.875,43.112121 c -1.23189,-0.225099 -2.23133,-0.485342 -2.88682,-0.75169 -1.95737,-0.79535 -3.63725,-2.331247 -4.48762,-4.102982 -0.97169,-2.024512 -0.92056,-1.388753 -0.96819,-12.038699 l -0.0426,-9.53125 h 2.18773 2.18772 l 0.0397,8.53125 c 0.0359,7.702424 0.0611,8.604114 0.25972,9.28125 0.74479,2.539229 2.1579,3.997409 4.30791,4.445292 0.99768,0.207834 3.01906,0.08082 3.95485,-0.248498 1.61535,-0.568474 2.68093,-1.555262 3.46139,-3.205434 0.8291,-1.753044 0.8612,-2.163321 0.8612,-11.007734 V 16.6875 h 2.1875 2.1875 V 29.625 42.5625 h -2.1875 -2.1875 v -1.5 c 0,-0.825 -0.0441,-1.5 -0.098,-1.5 -0.0539,0 -0.19315,0.160984 -0.30937,0.357742 -0.11623,0.196759 -0.57794,0.700695 -1.02603,1.119859 -0.87493,0.818456 -2.10047,1.48371 -3.37905,1.83424 -0.72866,0.199766 -3.41126,0.356779 -4.0625,0.23778 z"
   id="path627" /><path
   style="fill:#ffffff;stroke-width:0.125"
   d="m 921.75,43.112121 c -1.23189,-0.225099 -2.23133,-0.485342 -2.88682,-0.75169 -1.9581,-0.795647 -3.59333,-2.290467 -4.46469,-4.081317 -0.99227,-2.039372 -0.94818,-1.500978 -0.99272,-12.122864 l -0.0397,-9.46875 h 2.18706 2.18706 l 0.0397,8.53125 c 0.0357,7.666987 0.0618,8.607229 0.2576,9.28125 0.54636,1.880816 1.56209,3.280454 2.84639,3.922225 1.05395,0.526665 1.95064,0.684496 3.42858,0.603479 2.6736,-0.146562 4.3698,-1.244645 5.4461,-3.525704 0.84134,-1.783069 0.8664,-2.099823 0.8664,-10.951309 V 16.6875 H 932.8125 935 V 29.625 42.5625 h -2.1875 -2.1875 v -1.5 c 0,-0.825 -0.0422,-1.496894 -0.0937,-1.493096 -0.0516,0.0038 -0.29063,0.278845 -0.53125,0.611218 -0.8634,1.192605 -2.31536,2.148479 -4.00089,2.633925 -0.91193,0.262642 -3.46268,0.441275 -4.24911,0.297574 z"
   id="path629" /><path
   style="fill:#ffffff;stroke-width:0.125"
   d="m 948.5,43.049027 c -1.14555,-0.174923 -2.91479,-0.792465 -3.80573,-1.328358 -1.16518,-0.700857 -2.21013,-1.836429 -2.81035,-3.054085 -0.50105,-1.016477 -0.87739,-2.381342 -0.88175,-3.197834 L 941,35.0625 h 2.04652 2.04653 l 0.0816,0.51033 c 0.19079,1.193125 1.15285,2.458019 2.31898,3.048942 1.75947,0.891593 4.31868,0.938758 6.08467,0.112137 2.22957,-1.043617 2.85381,-3.92432 1.15936,-5.350109 -0.89259,-0.751061 -1.7427,-1.068086 -6.03641,-2.25109 -1.6387,-0.451496 -3.32941,-0.987916 -3.75712,-1.192043 -2.2336,-1.066001 -3.45608,-2.928491 -3.64206,-5.548803 -0.22078,-3.110707 1.39849,-5.895847 4.21197,-7.244586 1.77198,-0.849458 2.56569,-1.013618 4.92346,-1.018304 2.38682,-0.0047 3.44148,0.199749 4.96627,0.962934 2.33524,1.168821 3.96221,3.75822 3.96938,6.317438 l 0.002,0.659347 -2.02041,-0.03435 L 955.33417,24 955.17881,23.237725 c -0.35094,-1.7218 -1.32077,-2.858341 -2.83032,-3.316853 -1.13913,-0.346001 -3.05396,-0.287593 -4.11688,0.125578 -1.52543,0.592952 -2.47809,1.88492 -2.48039,3.363815 -0.002,1.320887 0.49996,2.139232 1.68228,2.742304 0.34154,0.174217 2.32388,0.809375 4.40519,1.411464 4.37808,1.266508 5.35167,1.680358 6.46255,2.747078 1.35087,1.297176 1.8977,2.884988 1.78702,5.188889 -0.0767,1.597059 -0.41111,2.651692 -1.22802,3.873072 -1.08284,1.618979 -2.97041,2.878243 -5.17274,3.450922 -1.16787,0.303682 -3.8971,0.422076 -5.1875,0.225033 z"
   id="path631" /><path
   style="fill:#ffffff;stroke-width:0.125"
   d="m 975.95364,42.990849 c -5.17326,-0.80449 -9.01025,-3.932999 -10.74335,-8.75965 -0.96956,-2.700205 -0.9852,-6.464109 -0.0384,-9.247746 1.45601,-4.280852 4.70613,-7.345061 9.02455,-8.508343 1.14021,-0.307145 1.4341,-0.334317 3.61608,-0.334317 2.18197,0 2.47586,0.02717 3.61607,0.334317 1.50551,0.405549 3.22641,1.225168 4.32143,2.058181 1.01225,0.770049 2.41011,2.236807 3.04228,3.192217 1.50705,2.277636 2.45561,5.381491 2.61469,8.555742 l 0.0517,1.03125 h -11.16921 -11.16921 l 0.0774,0.34375 c 0.22912,1.017344 0.36316,1.422754 0.73357,2.21875 1.08153,2.324177 3.04396,4.002599 5.63128,4.816301 1.33347,0.419374 3.7677,0.484026 5.21365,0.138473 1.99911,-0.477745 3.51985,-1.342058 5.22108,-2.967403 l 0.95404,-0.911485 1.65877,1.324643 1.65878,1.324642 -0.91566,0.928549 c -3.66573,3.717315 -8.28893,5.256871 -13.39952,4.462129 z m 10.40663,-15.878493 c -0.53779,-2.878637 -2.17407,-4.999353 -4.75448,-6.162066 -1.65083,-0.74385 -4.12174,-0.980177 -6.02725,-0.576467 -2.97523,0.630347 -5.41541,3.044627 -6.20748,6.141582 -0.13534,0.529147 -0.24606,1.009338 -0.24606,1.06709 0,0.05775 3.90211,0.105005 8.67136,0.105005 h 8.67136 z"
   id="path633" /><path
   style="fill:#ffffff;stroke-width:0.125"
   d="m 1004.875,43.00943 c -3.4948,-0.62726 -5.90978,-2.47975 -7.10077,-5.44693 -0.68516,-1.706976 -0.68605,-1.720913 -0.7407,-11.65625 l -0.0507,-9.21875 h 2.25376 2.25371 l 0.037,8.65625 0.037,8.65625 0.2921,0.875 c 0.939,2.813046 2.8156,4.190956 5.7006,4.185652 2.7069,-0.005 4.7857,-1.208107 5.8408,-3.380333 0.9188,-1.891882 0.8945,-1.614429 0.9456,-10.774069 l 0.046,-8.21875 h 2.1801 2.1802 V 29.625 42.5625 h -2.1875 -2.1875 v -1.5 c 0,-0.827865 -0.051,-1.5 -0.1148,-1.5 -0.063,0 -0.2357,0.195586 -0.3834,0.434636 -0.7017,1.135243 -2.5977,2.3987 -4.3143,2.874803 -1.0115,0.280543 -3.4861,0.353127 -4.6875,0.137491 z"
   id="path635" /><path
   style="fill:#ffffff;stroke-width:0.125"
   d="M 1026.125,29.625 V 16.6875 h 2.1875 2.1875 v 1.5 c 0,0.825 0.046,1.5 0.102,1.5 0.056,0 0.2227,-0.214848 0.3703,-0.477441 0.6647,-1.182633 2.4008,-2.353033 4.2152,-2.841629 1.1512,-0.31 3.4144,-0.375409 4.6875,-0.135475 2.0472,0.385812 3.9371,1.681588 5.1555,3.534819 l 0.5185,0.788674 0.4669,-0.738335 c 1.1922,-1.885562 2.9042,-2.963466 5.6091,-3.531636 0.9773,-0.205282 1.4862,-0.237738 2.875,-0.183353 1.9964,0.07818 2.9152,0.290606 4.4375,1.026014 2.4161,1.167153 3.9369,3.060381 4.7162,5.870862 0.2731,0.98477 0.2779,1.141351 0.3171,10.28125 l 0.04,9.28125 h -2.1928 -2.1927 v -8.28125 c 0,-9.079297 -0.036,-9.554013 -0.7253,-11.027081 -0.9498,-2.029586 -2.6584,-3.066669 -5.0526,-3.066669 -3.4053,0 -5.7389,1.802818 -6.4053,4.948445 -0.1501,0.708322 -0.1835,2.356628 -0.1852,9.145305 v 8.28125 h -2.1875 -2.1875 v -8.28125 c 0,-9.079297 -0.036,-9.554013 -0.7253,-11.027081 -0.9498,-2.029586 -2.6584,-3.066669 -5.0526,-3.066669 -3.4053,0 -5.7389,1.802818 -6.4053,4.948445 -0.1501,0.708322 -0.1835,2.356628 -0.1852,9.145305 v 8.28125 h -2.1875 -2.1875 z"
   id="path637" /></svg>
